<svg id="surface1" xmlns="http://www.w3.org/2000/svg" xmlns:xlink="http://www.w3.org/1999/xlink" width="75.531" height="69.49" viewBox="0 0 75.531 69.49">
  <defs>
    <linearGradient id="linear-gradient" x1="0.152" x2="0.874" y2="0.942" gradientUnits="objectBoundingBox">
      <stop offset="0" stop-color="#3d78d5"/>
      <stop offset="1" stop-color="#ad1fba"/>
    </linearGradient>
  </defs>
  <path id="Path_2644" data-name="Path 2644" d="M74.794,2.213a1.514,1.514,0,0,0-1.493-.03l-15.95,8.7L38.4,2.136a1.508,1.508,0,0,0-1.3.024L19.638,10.887,2.183,2.16A1.507,1.507,0,0,0,0,3.511v57.4a1.508,1.508,0,0,0,.838,1.351L18.965,71.33a1.511,1.511,0,0,0,1.351,0L37.8,62.591l18.977,8.763a1.557,1.557,0,0,0,.631.136,1.524,1.524,0,0,0,.726-.183l16.617-9.064a1.512,1.512,0,0,0,.785-1.328V3.511A1.518,1.518,0,0,0,74.794,2.213ZM64.562,23.8a1.506,1.506,0,0,1,2.077.49,14.918,14.918,0,0,1,.8,1.458,1.509,1.509,0,0,1-.7,2.018,1.559,1.559,0,0,1-.661.148,1.505,1.505,0,0,1-1.357-.85c-.207-.413-.419-.808-.655-1.186A1.512,1.512,0,0,1,64.562,23.8ZM58.6,19.249a1.513,1.513,0,0,1,2.053-.6c.478.266.95.555,1.41.868a1.511,1.511,0,1,1-1.705,2.5c-.378-.26-.767-.5-1.162-.714A1.515,1.515,0,0,1,58.6,19.249ZM9.919,18.47a1.567,1.567,0,0,1-.85.254,1.382,1.382,0,0,1-1.192-.661l-.106-.177a1.509,1.509,0,1,1,2.585-1.558A1.57,1.57,0,0,1,9.919,18.47ZM11.7,21.007a1.513,1.513,0,0,1,2.13.177c.319.378.637.738.95,1.068a1.511,1.511,0,0,1-.065,2.136,1.505,1.505,0,0,1-2.136-.065c-.348-.372-.7-.767-1.056-1.186A1.513,1.513,0,0,1,11.7,21.007Zm4.921,39.908a4.532,4.532,0,1,1,4.532-4.532A4.533,4.533,0,0,1,16.617,60.915ZM21.19,28.153a1.511,1.511,0,0,1-1.416.985,1.473,1.473,0,0,1-.525-.094,13.276,13.276,0,0,1-1.552-.69,1.51,1.51,0,0,1,1.393-2.679,10.571,10.571,0,0,0,1.2.531A1.519,1.519,0,0,1,21.19,28.153Zm4.089,26.082c-.443.118-.9.248-1.363.4a1.431,1.431,0,0,1-.466.077,1.513,1.513,0,0,1-.472-2.95c.525-.171,1.033-.319,1.534-.449a1.51,1.51,0,1,1,.767,2.921Zm2.378-25.2a14.413,14.413,0,0,1-1.623.454,1.51,1.51,0,1,1-.649-2.95,12.222,12.222,0,0,0,1.286-.36,1.511,1.511,0,1,1,.985,2.856Zm4.727,24.66a1.255,1.255,0,0,1-.153-.006c-.46-.047-.926-.082-1.4-.094a1.509,1.509,0,0,1-1.458-1.558,1.467,1.467,0,0,1,1.558-1.463c.543.018,1.08.053,1.605.106a1.512,1.512,0,0,1-.148,3.015Zm.85-24.5a4.532,4.532,0,1,1,4.532-4.532A4.533,4.533,0,0,1,33.234,29.192Zm7.919,25.2a1.516,1.516,0,0,1-1.44,1.044,1.453,1.453,0,0,1-.466-.077c-.466-.147-.938-.3-1.41-.443a1.51,1.51,0,1,1,.873-2.891c.49.153.979.307,1.469.466A1.511,1.511,0,0,1,41.153,54.388ZM40.61,20.594c-.4.266-.785.555-1.186.85a1.5,1.5,0,0,1-.9.3,1.508,1.508,0,0,1-.9-2.72c.431-.319.856-.625,1.28-.915a1.509,1.509,0,1,1,1.705,2.49Zm4.644-5.033c.519,0,1.027.006,1.546.018a1.511,1.511,0,0,1-.035,3.021h-.029q-.752-.018-1.452-.018a1.525,1.525,0,0,1-1.528-1.511A1.5,1.5,0,0,1,45.254,15.561Zm1.723,41.92a1.562,1.562,0,0,1-.283-.024c-.525-.1-1.039-.212-1.546-.336a1.509,1.509,0,1,1,.708-2.933c.46.106.926.212,1.4.3a1.509,1.509,0,0,1-.283,2.992Zm6.06-41.353c.519.089,1.039.189,1.558.307a1.511,1.511,0,0,1-.324,2.986,1.578,1.578,0,0,1-.331-.035c-.472-.106-.938-.195-1.41-.277a1.511,1.511,0,0,1,.508-2.98Zm1.741,41.46c-.549.106-1.1.189-1.64.242a1.249,1.249,0,0,1-.153.012,1.511,1.511,0,0,1-.147-3.015c.448-.047.9-.112,1.351-.2a1.5,1.5,0,0,1,1.776,1.186A1.519,1.519,0,0,1,54.778,57.587Zm5.647.307a4.532,4.532,0,1,1,4.532-4.532A4.533,4.533,0,0,1,60.425,57.894Zm6.721-10.3c-.236.507-.484.991-.749,1.452a1.508,1.508,0,0,1-1.316.761,1.475,1.475,0,0,1-.744-.195,1.509,1.509,0,0,1-.566-2.059c.224-.4.437-.8.637-1.233a1.51,1.51,0,0,1,2.738,1.275Zm1.882-6.137a1.515,1.515,0,0,1-1.487,1.257,1.931,1.931,0,0,1-.26-.024,1.511,1.511,0,0,1-1.233-1.747c.082-.46.147-.932.207-1.41a1.512,1.512,0,1,1,3,.348Q69.161,40.693,69.029,41.454Zm-1.021-6.267H67.9a1.509,1.509,0,0,1-1.5-1.4c-.035-.484-.083-.95-.147-1.4a1.512,1.512,0,1,1,3-.4q.106.77.159,1.593A1.509,1.509,0,0,1,68.008,35.187Z" transform="translate(0 -1.999)" fill="url(#linear-gradient)"/>
</svg>
