<svg id="surface1" xmlns="http://www.w3.org/2000/svg" xmlns:xlink="http://www.w3.org/1999/xlink" width="72.504" height="69.489" viewBox="0 0 72.504 69.489">
  <defs>
    <linearGradient id="linear-gradient" x1="0.057" x2="0.825" y2="1.084" gradientUnits="objectBoundingBox">
      <stop offset="0" stop-color="#1498de"/>
      <stop offset="1" stop-color="#c30db5"/>
    </linearGradient>
  </defs>
  <path id="Path_2640" data-name="Path 2640" d="M31.243,2,29.591,12.114a25.421,25.421,0,0,0-5.193,2.13L16.06,8.29,8.383,15.956l5.866,8.385a25.464,25.464,0,0,0-2.172,5.228L2,31.245V42.1l10.049,1.782a25.96,25.96,0,0,0,2.177,5.228L8.288,57.421,15.96,65.1l8.4-5.883a25.314,25.314,0,0,0,6.137,2.4c.679.189,1.357.336,2.03.466a6.033,6.033,0,0,1,5.352-4.184l3.411-3.411a6.043,6.043,0,0,1,12.073.354l.673.755a29.177,29.177,0,0,0,4.7-5.588l.018-.035a25.275,25.275,0,0,0,2.679-6.1L71.481,42.1V31.245L61.408,29.569a25.79,25.79,0,0,0-2.172-5.228l5.86-8.385L57.419,8.29l-8.332,5.954a25.421,25.421,0,0,0-5.193-2.13L42.242,2Zm5.5,24.17A10.574,10.574,0,1,1,26.168,36.744,10.576,10.576,0,0,1,36.742,26.17ZM71.487,50.34a3.021,3.021,0,0,0-2.815,4.119L59.85,65.488a2.269,2.269,0,0,0-.449-.041,2.988,2.988,0,0,0-.608.065l-8.615-9.689a2.893,2.893,0,0,0,.159-.95,3.021,3.021,0,1,0-6.043,0,3.129,3.129,0,0,0,.1.779l-5.364,5.37a2.882,2.882,0,0,0-.779-.106,3.021,3.021,0,1,0,3.021,3.021,3.13,3.13,0,0,0-.1-.779l5.364-5.37a2.882,2.882,0,0,0,.779.106,2.988,2.988,0,0,0,.608-.065l8.615,9.689a2.893,2.893,0,0,0-.159.95,3.021,3.021,0,1,0,5.836-1.1l8.822-11.029a2.269,2.269,0,0,0,.449.041,3.021,3.021,0,1,0,0-6.043Z" transform="translate(-2.004 -2)" fill="url(#linear-gradient)"/>
</svg>
